PathFileType	4	(X/Y/Z)	c:/Users/goper/Files/vsCode/490R/osim_files/C12/C12_Static.trc
DataRate	CameraRate	NumFrames	NumMarkers	Units                	OrigDataRate	OrigDataStartFrame	OrigNumFrames
120.00	120.00	10	36	mm	120.0	204	812
                Frame#	Time	LPSIS			LASIS			LTH1			LTH2			LTH3			LTH4			LLFE			LMFE			LSH1			LSH2			LSH3			LSH4			LLMAL			LMMAL			LCAL			LMTP5			LTOE			LMTP1			RPSIS			RASIS			RTH1			RTH2			RTH3			RTH4			RLFE			RMFE			RSH1			RSH2			RSH3			RSH4			RLMAL			RMMAL			RCAL			RMTP1			RTOE			RMTP5		
		X1	Y1	Z1	X2	Y2	Z2	X3	Y3	Z3	X4	Y4	Z4	X5	Y5	Z5	X6	Y6	Z6	X7	Y7	Z7	X8	Y8	Z8	X9	Y9	Z9	X10	Y10	Z10	X11	Y11	Z11	X12	Y12	Z12	X13	Y13	Z13	X14	Y14	Z14	X15	Y15	Z15	X16	Y16	Z16	X17	Y17	Z17	X18	Y18	Z18	X19	Y19	Z19	X20	Y20	Z20	X21	Y21	Z21	X22	Y22	Z22	X23	Y23	Z23	X24	Y24	Z24	X25	Y25	Z25	X26	Y26	Z26	X27	Y27	Z27	X28	Y28	Z28	X29	Y29	Z29	X30	Y30	Z30	X31	Y31	Z31	X32	Y32	Z32	X33	Y33	Z33	X34	Y34	Z34	X35	Y35	Z35	X36	Y36	Z36

204	1.69167	-343.38361	1063.88586	433.63715	-165.29686	1031.20447	368.95334	-295.05972	762.95978	303.70572	-293.45514	719.55939	300.54221	-233.68161	760.84656	293.35397	-240.92424	716.28400	292.89090	-282.83713	535.09888	320.70056	-270.27310	513.41705	444.24402	-349.80978	446.72421	296.83279	-346.85541	400.59464	283.01358	-289.21255	445.65817	295.29425	-295.14246	399.39212	285.30881	-311.77905	103.11885	285.28174	-290.13354	103.26105	360.86035	-366.80203	72.67835	326.36026	-180.84377	40.05005	239.27121	-121.97886	70.13141	301.05206	-146.95009	41.66067	346.21652	-352.26059	1061.91565	543.66986	-168.12344	1024.84338	630.68903	-285.90964	763.17474	700.24524	-284.26764	717.45593	695.79871	-222.82671	758.11420	699.03058	-231.93370	711.03259	696.12756	-299.69452	536.59149	673.15344	-288.07214	520.58594	540.44342	-369.37045	442.60751	697.80939	-366.19550	400.49265	709.33630	-306.72638	438.89267	698.55536	-314.53647	398.28183	711.37042	-331.10989	102.53294	701.46619	-307.04675	113.02026	621.81842	-395.62454	63.70588	658.16864	-178.14786	47.26627	632.50360	-140.27711	67.11198	668.47559	-178.27513	41.03987	739.54272
205	1.70000	-343.36798	1063.92017	433.62335	-165.27278	1031.18799	368.96277	-295.05283	762.96930	303.71442	-293.45239	719.59833	300.53619	-233.67482	760.82886	293.36768	-240.92696	716.27484	292.90152	-282.81512	535.11261	320.70361	-270.28561	513.40472	444.22852	-349.80118	446.74347	296.81561	-346.83038	400.61053	282.99658	-289.21591	445.66364	295.30014	-295.13956	399.39688	285.30933	-311.76791	103.13046	285.27814	-290.06061	103.24814	360.87573	-366.81381	72.65371	326.33664	-180.84964	40.04928	239.26834	-121.97518	70.10683	301.05029	-146.92876	41.65527	346.20816	-352.22769	1061.95337	543.68311	-168.09236	1024.82129	630.68317	-285.89200	763.17432	700.24585	-284.26434	717.44208	695.81073	-223.17291	757.93536	698.99347	-231.93170	711.03296	696.12915	-299.69412	536.58295	673.15369	-288.08463	520.58997	540.45923	-369.33063	442.61844	697.82172	-366.20023	400.50699	709.33807	-306.72076	438.90506	698.54388	-314.51169	398.27731	711.34717	-331.06061	102.53228	701.46924	-307.04913	113.00751	621.81055	-395.63675	63.75695	658.18024	-178.13937	47.27569	632.52063	-140.27673	67.10442	668.47986	-178.26018	41.04383	739.53369
206	1.70833	-343.37927	1063.92651	433.59171	-165.14632	1031.18445	368.96783	-295.09940	762.96686	303.74078	-293.45325	719.61078	300.53909	-233.67493	760.84845	293.37714	-240.91565	716.30621	292.91672	-282.83676	535.10187	320.70917	-270.30820	513.39691	444.23026	-349.78943	446.76190	296.80508	-346.83429	400.63193	282.99188	-289.20413	445.67578	295.29144	-295.10886	399.42767	285.31461	-311.75842	103.13862	285.26401	-290.06647	103.21172	360.83374	-366.79395	72.67711	326.39496	-180.81081	40.05298	239.28304	-121.93710	70.13301	301.06543	-146.92046	41.63643	346.21176	-352.23181	1061.95642	543.63928	-168.07555	1024.82434	630.70685	-285.89993	763.17175	700.25690	-284.29343	717.42010	695.79846	-223.17636	757.92181	699.01086	-231.91852	711.00928	696.14258	-299.72736	536.54388	673.16589	-288.07706	520.58905	540.45178	-369.33203	442.60974	697.82471	-366.20078	400.48770	709.32208	-306.74762	438.90778	698.56512	-314.51797	398.27243	711.33533	-331.02878	102.53234	701.46991	-307.04428	113.03548	621.82404	-395.63730	63.76133	658.16797	-178.10173	47.28571	632.52551	-140.25749	67.13636	668.48987	-178.27054	41.04181	739.53717
207	1.71667	-343.33002	1063.90808	433.58920	-165.14607	1031.17212	369.00421	-295.10052	762.97906	303.74033	-293.45883	719.61414	300.55557	-233.65454	760.87122	293.40430	-240.91110	716.33600	292.94000	-282.84552	535.10284	320.70599	-270.29346	513.41626	444.23593	-349.79669	446.75940	296.80737	-346.83209	400.64102	283.00006	-289.19690	445.68750	295.29834	-295.10455	399.42920	285.32114	-311.78726	103.13097	285.26285	-290.07715	103.18668	360.84210	-366.77982	72.60702	326.47040	-180.86232	40.00519	239.30911	-121.93604	70.12761	301.09680	-146.95345	41.60764	346.23038	-352.16049	1061.93958	543.62823	-168.05051	1024.82043	630.76031	-285.91052	763.13965	700.27271	-284.34894	717.38794	695.79266	-223.20757	757.90643	699.04962	-231.99028	710.96686	696.15674	-299.74020	536.50995	673.16235	-288.09866	520.57812	540.46082	-369.35062	442.57071	697.81891	-366.19937	400.45062	709.33972	-306.75928	438.90158	698.58673	-314.56863	398.24704	711.35480	-331.04688	102.49702	701.48090	-307.04010	113.03001	621.81311	-395.65137	63.73974	658.19098	-178.09937	47.29259	632.55127	-140.25462	67.15100	668.50989	-178.29129	41.03961	739.56097
208	1.72500	-343.28613	1063.89148	433.61121	-165.10719	1031.15930	369.02872	-295.06546	762.97028	303.74796	-293.46689	719.60480	300.57898	-233.67099	760.86304	293.40918	-240.90721	716.32959	292.95374	-282.85617	535.08014	320.70914	-270.28174	513.41095	444.24963	-349.76926	446.75031	296.81445	-346.81882	400.63358	283.00900	-289.21295	445.66232	295.30447	-295.10303	399.41333	285.32556	-311.76184	103.11265	285.27118	-290.08444	103.17162	360.85019	-366.80881	72.61896	326.52454	-180.85071	39.98162	239.31691	-121.94104	70.11442	301.09131	-146.93108	41.62296	346.23318	-351.97351	1061.87610	543.68250	-168.02219	1024.80493	630.78235	-285.93372	763.11536	700.26947	-284.31219	717.39386	695.82562	-223.20238	757.88354	699.07990	-231.95586	710.95636	696.17151	-299.75842	536.49939	673.17261	-288.12222	520.54889	540.47479	-369.35910	442.53305	697.83014	-366.18658	400.42258	709.34515	-306.75238	438.89413	698.59930	-314.55515	398.24554	711.38190	-331.05792	102.47572	701.49182	-307.04556	113.00934	621.81378	-395.60181	63.70485	658.20599	-178.08060	47.26891	632.55945	-140.25163	67.14661	668.51959	-178.30466	41.05036	739.58215
209	1.73333	-343.23752	1063.85657	433.60156	-165.15215	1031.16272	369.03149	-295.03818	762.95941	303.75040	-293.46860	719.55267	300.60266	-233.67165	760.81342	293.42258	-240.92197	716.28033	292.96384	-282.83319	535.05249	320.71539	-270.27505	513.39728	444.26096	-349.78589	446.69971	296.80539	-346.80609	400.60361	283.00266	-289.20331	445.65192	295.30219	-295.09305	399.37183	285.31296	-311.75739	103.08451	285.26312	-290.04874	103.21228	360.83658	-366.78656	72.69936	326.38605	-180.80792	40.00777	239.26051	-121.91741	70.12481	301.05402	-146.85915	41.67011	346.20792	-351.90002	1061.85559	543.71832	-167.97958	1024.81250	630.77777	-285.94489	763.13220	700.24890	-284.32242	717.42566	695.79694	-223.14554	757.94061	699.04108	-231.94720	711.00427	696.14496	-299.73111	536.53864	673.16333	-288.13336	520.52429	540.46918	-369.36981	442.53052	697.81787	-366.20505	400.43216	709.32733	-306.69476	438.91559	698.55487	-314.52939	398.25418	711.37238	-331.07562	102.48310	701.47754	-307.04108	112.97284	621.81134	-395.58533	63.70265	658.15552	-178.07303	47.28767	632.52655	-140.25043	67.12458	668.49207	-178.26944	41.04200	739.56183
210	1.74167	-343.20898	1063.86987	433.62778	-165.12221	1031.12708	369.04208	-295.01810	762.92200	303.75922	-293.44318	719.53290	300.60010	-233.67265	760.78912	293.43475	-240.92078	716.24695	292.96957	-282.82690	535.03406	320.71701	-270.29092	513.38129	444.26425	-349.77856	446.68527	296.80017	-346.79565	400.58395	282.99103	-289.20920	445.62036	295.30945	-295.09140	399.36566	285.31250	-311.75845	103.06815	285.27304	-290.06778	103.22633	360.83026	-366.77432	72.71834	326.29813	-180.81561	40.02091	239.24713	-121.92413	70.12285	301.01947	-146.86446	41.67233	346.19806	-351.88028	1061.85181	543.72601	-167.92508	1024.82312	630.75922	-285.96027	763.15234	700.23621	-284.33923	717.45911	695.79285	-223.10941	757.97284	699.05383	-231.93604	711.04443	696.14606	-299.73679	536.57300	673.17249	-288.15610	520.51904	540.49072	-369.38446	442.56647	697.81476	-366.20346	400.44147	709.32605	-306.69250	438.90527	698.54541	-314.52515	398.25549	711.38110	-331.10818	102.50863	701.46240	-307.06146	112.95813	621.82080	-395.57605	63.69545	658.11353	-178.10568	47.26965	632.48975	-140.24382	67.11598	668.47369	-178.28061	41.02200	739.54663
211	1.75000	-343.20917	1063.90161	433.61731	-165.10519	1031.11816	369.05899	-294.99219	762.89148	303.73517	-293.44632	719.52722	300.59912	-233.62917	760.79846	293.42950	-240.88139	716.25500	292.96463	-282.81412	535.05499	320.70901	-270.32571	513.38049	444.26730	-349.77826	446.70462	296.78638	-346.81125	400.58627	282.98380	-289.18997	445.64099	295.29700	-295.08572	399.38666	285.29837	-311.74869	103.07131	285.25711	-290.08456	103.23643	360.83374	-366.77795	72.66624	326.28720	-180.82036	40.02751	239.23503	-121.92500	70.14362	301.00629	-146.86662	41.68762	346.17026	-351.80161	1061.87512	543.76239	-167.90738	1024.82361	630.74939	-285.96481	763.15857	700.24036	-284.34644	717.42999	695.78949	-223.13316	757.96185	699.02417	-231.95518	711.05170	696.12451	-299.73715	536.57849	673.17657	-288.14926	520.55029	540.50684	-369.39331	442.59198	697.83740	-366.20752	400.45987	709.34656	-306.68542	438.92484	698.54431	-314.55127	398.25647	711.36945	-331.07852	102.54166	701.46576	-307.03537	112.97356	621.83594	-395.57938	63.71217	658.10107	-178.08252	47.30235	632.47418	-140.25163	67.11877	668.45667	-178.27646	41.01068	739.52991
212	1.75833	-343.18015	1063.92700	433.63303	-165.08617	1031.16113	369.05978	-295.02460	762.91919	303.75864	-293.41049	719.57434	300.59708	-233.61745	760.84729	293.45053	-240.88768	716.29663	292.97052	-282.85373	535.08130	320.72119	-270.33795	513.40302	444.26898	-349.79205	446.76172	296.79739	-346.83585	400.61700	282.98099	-289.19785	445.67603	295.29932	-295.07822	399.45111	285.30176	-311.77155	103.11673	285.25830	-290.09546	103.23109	360.81845	-366.74918	72.63850	326.27896	-180.83194	40.04629	239.23863	-121.92244	70.18211	301.01743	-146.88017	41.70160	346.18109	-352.02606	1061.95935	543.67828	-167.89148	1024.84949	630.76691	-285.95416	763.15460	700.24652	-284.34662	717.41742	695.79169	-223.13673	758.00299	699.04083	-231.91504	711.07428	696.14777	-299.76572	536.57324	673.17633	-288.17331	520.57660	540.49976	-369.38824	442.62228	697.84399	-366.21576	400.48087	709.36127	-306.67758	438.94183	698.55927	-314.54263	398.27612	711.36792	-331.07291	102.56181	701.46582	-307.06186	113.02774	621.83258	-395.59473	63.74619	658.12958	-178.07230	47.34516	632.49213	-140.25526	67.16461	668.46936	-178.29311	41.02143	739.52740
213	1.76667	-343.17798	1063.93396	433.60931	-165.08488	1031.17273	369.09464	-295.01477	762.95605	303.76404	-293.43710	719.57690	300.60739	-233.61627	760.85657	293.45746	-240.87953	716.31970	292.99896	-282.86078	535.10284	320.70206	-270.36108	513.42499	444.27121	-349.80237	446.79288	296.80133	-346.83194	400.66415	282.97885	-289.20184	445.69760	295.28836	-295.08868	399.47354	285.31467	-311.79080	103.14729	285.26068	-290.12875	103.25558	360.83136	-366.80850	72.62706	326.34341	-180.86752	40.05290	239.26463	-121.94765	70.17965	301.03986	-146.93117	41.68604	346.19171	-352.02325	1061.98425	543.68188	-167.91118	1024.84058	630.81354	-285.94528	763.15063	700.25208	-284.34622	717.41840	695.81494	-223.19109	757.97003	699.09076	-231.95953	711.05188	696.17804	-299.81900	536.55609	673.19922	-288.18814	520.58875	540.49261	-369.38992	442.61276	697.87427	-366.21057	400.47232	709.38031	-306.70236	438.95023	698.56653	-314.59467	398.27463	711.38269	-331.10876	102.55375	701.47858	-307.07425	113.04392	621.82605	-395.63144	63.77010	658.16217	-178.11853	47.35354	632.50446	-140.27043	67.17283	668.48010	-178.32153	41.05035	739.54041
